<svg width="962" height="180" xmlns="http://www.w3.org/2000/svg" xmlns:xlink="http://www.w3.org/1999/xlink" overflow="hidden"><defs><clipPath id="clip0"><rect x="159" y="451" width="962" height="180"/></clipPath><clipPath id="clip1"><rect x="160" y="452" width="960" height="178"/></clipPath><clipPath id="clip2"><rect x="160" y="452" width="960" height="178"/></clipPath><clipPath id="clip3"><rect x="160" y="-67" width="960" height="697"/></clipPath></defs><g clip-path="url(#clip0)" transform="translate(-159 -451)"><g clip-path="url(#clip1)"><g clip-path="url(#clip2)"><g clip-path="url(#clip3)"><path d="M0 426 13.3 430.2C26.7 434.3 53.3 442.7 80 441 106.7 439.3 133.3 427.7 160 428.2 186.7 428.7 213.3 441.3 240 445.2 266.7 449 293.3 444 320 438.5 346.7 433 373.3 427 400 427.3 426.7 427.7 453.3 434.3 480 433 506.7 431.7 533.3 422.3 560 424.7 586.7 427 613.3 441 640 447.7 666.7 454.3 693.3 453.7 720 446.8 746.7 440 773.3 427 800 424.3 826.7 421.7 853.3 429.3 880 434.5 906.7 439.7 933.3 442.3 946.7 443.7L960 445 960 541 946.7 541C933.3 541 906.7 541 880 541 853.3 541 826.7 541 800 541 773.3 541 746.7 541 720 541 693.3 541 666.7 541 640 541 613.3 541 586.7 541 560 541 533.3 541 506.7 541 480 541 453.3 541 426.7 541 400 541 373.3 541 346.7 541 320 541 293.3 541 266.7 541 240 541 213.3 541 186.7 541 160 541 133.3 541 106.7 541 80 541 53.3 541 26.7 541 13.3 541L0 541Z" fill="#FA7268" transform="matrix(1 0 0 1.28983 160 -66.5096)"/><path d="M0 451 13.3 455C26.7 459 53.3 467 80 469.8 106.7 472.7 133.3 470.3 160 465.3 186.7 460.3 213.3 452.7 240 453.3 266.7 454 293.3 463 320 466.8 346.7 470.7 373.3 469.3 400 466.5 426.7 463.7 453.3 459.3 480 456.8 506.7 454.3 533.3 453.7 560 454.7 586.7 455.7 613.3 458.3 640 456.8 666.7 455.3 693.3 449.7 720 450.2 746.7 450.7 773.3 457.3 800 462.3 826.7 467.3 853.3 470.7 880 468.5 906.7 466.3 933.3 458.7 946.7 454.8L960 451 960 541 946.7 541C933.3 541 906.7 541 880 541 853.3 541 826.7 541 800 541 773.3 541 746.7 541 720 541 693.3 541 666.7 541 640 541 613.3 541 586.7 541 560 541 533.3 541 506.7 541 480 541 453.3 541 426.7 541 400 541 373.3 541 346.7 541 320 541 293.3 541 266.7 541 240 541 213.3 541 186.7 541 160 541 133.3 541 106.7 541 80 541 53.3 541 26.7 541 13.3 541L0 541Z" fill="#EF5F67" transform="matrix(1 0 0 1.28983 160 -66.5096)"/><path d="M0 471 13.3 472.3C26.7 473.7 53.3 476.3 80 478.3 106.7 480.3 133.3 481.7 160 478.7 186.7 475.7 213.3 468.3 240 466 266.7 463.7 293.3 466.3 320 465.7 346.7 465 373.3 461 400 463.8 426.7 466.7 453.3 476.3 480 479 506.7 481.7 533.3 477.3 560 472.7 586.7 468 613.3 463 640 465.5 666.7 468 693.3 478 720 478.7 746.7 479.3 773.3 470.7 800 468.7 826.7 466.7 853.3 471.3 880 471.3 906.7 471.3 933.3 466.7 946.7 464.3L960 462 960 541 946.7 541C933.3 541 906.7 541 880 541 853.3 541 826.7 541 800 541 773.3 541 746.7 541 720 541 693.3 541 666.7 541 640 541 613.3 541 586.7 541 560 541 533.3 541 506.7 541 480 541 453.3 541 426.7 541 400 541 373.3 541 346.7 541 320 541 293.3 541 266.7 541 240 541 213.3 541 186.7 541 160 541 133.3 541 106.7 541 80 541 53.3 541 26.7 541 13.3 541L0 541Z" fill="#E34C67" transform="matrix(1 0 0 1.28983 160 -66.5096)"/><path d="M0 480 13.3 481.2C26.7 482.3 53.3 484.7 80 485.5 106.7 486.3 133.3 485.7 160 487.8 186.7 490 213.3 495 240 496.3 266.7 497.7 293.3 495.3 320 496.3 346.7 497.3 373.3 501.7 400 503.7 426.7 505.7 453.3 505.3 480 501.2 506.7 497 533.3 489 560 489.3 586.7 489.7 613.3 498.3 640 500.8 666.7 503.3 693.3 499.7 720 499 746.7 498.3 773.3 500.7 800 502.3 826.7 504 853.3 505 880 504.3 906.7 503.7 933.3 501.3 946.7 500.2L960 499 960 541 946.7 541C933.3 541 906.7 541 880 541 853.3 541 826.7 541 800 541 773.3 541 746.7 541 720 541 693.3 541 666.7 541 640 541 613.3 541 586.7 541 560 541 533.3 541 506.7 541 480 541 453.3 541 426.7 541 400 541 373.3 541 346.7 541 320 541 293.3 541 266.7 541 240 541 213.3 541 186.7 541 160 541 133.3 541 106.7 541 80 541 53.3 541 26.7 541 13.3 541L0 541Z" fill="#D53867" transform="matrix(1 0 0 1.28983 160 -66.5096)"/><path d="M0 504 13.3 505C26.7 506 53.3 508 80 509.8 106.7 511.7 133.3 513.3 160 512.8 186.7 512.3 213.3 509.7 240 508.8 266.7 508 293.3 509 320 511 346.7 513 373.3 516 400 517 426.7 518 453.3 517 480 517.7 506.7 518.3 533.3 520.7 560 519.7 586.7 518.7 613.3 514.3 640 513 666.7 511.7 693.3 513.3 720 515 746.7 516.7 773.3 518.3 800 518.7 826.7 519 853.3 518 880 518.2 906.7 518.3 933.3 519.7 946.7 520.3L960 521 960 541 946.7 541C933.3 541 906.7 541 880 541 853.3 541 826.7 541 800 541 773.3 541 746.7 541 720 541 693.3 541 666.7 541 640 541 613.3 541 586.7 541 560 541 533.3 541 506.7 541 480 541 453.3 541 426.7 541 400 541 373.3 541 346.7 541 320 541 293.3 541 266.7 541 240 541 213.3 541 186.7 541 160 541 133.3 541 106.7 541 80 541 53.3 541 26.7 541 13.3 541L0 541Z" fill="#C62368" transform="matrix(1 0 0 1.28983 160 -66.5096)"/></g></g></g></g></svg>